<?xml version="1.0" standalone="no"?>
<!DOCTYPE svg PUBLIC "-//W3C//DTD SVG 1.1//EN" "http://www.w3.org/Graphics/SVG/1.1/DTD/svg11.dtd" >
<svg xmlns="http://www.w3.org/2000/svg" xmlns:xlink="http://www.w3.org/1999/xlink" version="1.1">
<metadata></metadata>
<defs>
<font id="secular_oneregular" horiz-adv-x="1331" >
<font-face units-per-em="2048" ascent="1638" descent="-410" />
<missing-glyph horiz-adv-x="409" />
<glyph unicode="&#xfb01;" horiz-adv-x="1726" d="M94 0v248h187v559h-187v248h187v129q0 154 99 247t261 93q115 0 254 -58l-100 -227q-70 35 -125 35q-100 0 -101 -105v-114h924v-807h176v-248h-661v248h196v559h-635v-559h246v-248h-721zM1167 1229v266h330v-266h-330z" />
<glyph unicode="&#xfb02;" horiz-adv-x="1714" d="M94 0v248h187v559h-187v248h187v129q0 154 99 247t261 93q115 0 254 -58l-100 -227q-70 35 -125 35q-100 0 -101 -105v-114h246v-248h-246v-559h613v1001h-176v246h464v-1247h187v-248h-1563z" />
<glyph horiz-adv-x="0" />
<glyph horiz-adv-x="682" />
<glyph unicode=" "  horiz-adv-x="409" />
<glyph unicode="&#x09;" horiz-adv-x="409" />
<glyph unicode="&#xa0;" horiz-adv-x="409" />
<glyph unicode="!" horiz-adv-x="800" d="M205 1466l391 41l-76 -1026h-241zM217 139q0 78 56.5 135.5t134.5 57.5t134 -57.5t56 -135.5t-56 -134t-134 -56t-134.5 56t-56.5 134z" />
<glyph unicode="&#x22;" horiz-adv-x="1245" d="M143 831q41 51 74 103.5t51 99.5l-118 178q0 47 25.5 92.5t71.5 75t107 29.5q86 0 148.5 -61.5t62.5 -159.5q0 -66 -34.5 -153t-116.5 -185.5t-221 -196.5zM680 831q41 51 73.5 103.5t51.5 99.5l-119 178q0 47 25.5 92.5t71.5 75t108 29.5q86 0 148.5 -61.5t62.5 -159.5 q0 -66 -35 -153t-117 -185.5t-221 -196.5z" />
<glyph unicode="#" horiz-adv-x="1419" d="M156 254v184h235l39 230h-274v182h309l43 242l188 14l-45 -256h221l43 242l189 14l-43 -256h201v-182h-236l-39 -230h275v-184h-310l-43 -254l-190 -14l47 268h-221l-45 -254l-189 -14l47 268h-202zM580 438h219l39 230h-222z" />
<glyph unicode="$" horiz-adv-x="1189" d="M133 72l25 274q125 -78 258 -106l88 319q-63 25 -129 55.5t-120 74.5t-87 111.5t-33 168.5q0 195 133 308.5t371 113.5q23 0 47.5 -1t46.5 -4l43 152l156 -22l-45 -160q63 -16 121 -39l-45 -270q-33 18 -70 34.5t-74 26.5l-88 -315q80 -31 155 -77t123 -123t48 -200 q0 -199 -134.5 -309.5t-377.5 -110.5h-43l-49 -176l-154 23l49 174q-127 25 -215 78zM432 999q0 -59 43 -89.5t111 -59.5l80 289h-31q-96 0 -149.5 -38t-53.5 -102zM571 227q84 6 136.5 46t52.5 102q0 47 -31 75.5t-80 51.5z" />
<glyph unicode="%" horiz-adv-x="1609" d="M133 1094q0 80 39 142t103.5 99t144.5 37t144.5 -37t102.5 -99t38 -142q0 -78 -38 -140.5t-102.5 -99.5t-144.5 -37t-144.5 37t-103.5 99.5t-39 140.5zM274 -2l924 1376l137 -16l-923 -1378zM291 1094q0 -53 36 -95.5t93 -42.5t92 42t35 96q0 53 -35 96t-92 43t-93 -43 t-36 -96zM909 260q0 78 38 141.5t102.5 100.5t142.5 37q80 0 144.5 -37t102.5 -100.5t38 -141.5t-38 -141.5t-102.5 -100t-144.5 -36.5q-78 0 -142.5 36.5t-102.5 100t-38 141.5zM1063 260q0 -53 35 -95t92 -42q59 0 94 42t35 95t-35 96t-94 43q-57 0 -92 -43t-35 -96z" />
<glyph unicode="&#x26;" horiz-adv-x="1400" d="M92 330q0 102 41 179t103.5 135t125.5 101q-80 96 -106.5 167t-26.5 139q0 113 50.5 189.5t135.5 116.5t187 40q152 0 238 -81t86 -214q0 -117 -62.5 -206t-148.5 -163q45 -45 100 -101.5t125 -127.5q31 104 39 256l262 33q2 -279 -106 -484l215 -227l-222 -127l-159 168 q-84 -72 -202 -113t-243 -41q-195 0 -313.5 97.5t-118.5 263.5zM360 360q0 -84 62.5 -120.5t138.5 -36.5q70 0 133.5 25.5t108.5 64.5q-88 88 -160 158.5t-129 128.5q-84 -57 -119 -110.5t-35 -109.5zM479 1065q0 -31 17.5 -68t68.5 -100q45 37 80 86t35 102q0 47 -28.5 71 t-63.5 24q-39 0 -74 -28t-35 -87z" />
<glyph unicode="'" horiz-adv-x="708" d="M143 831q41 51 74 103.5t51 99.5l-118 178q0 47 25.5 92.5t71.5 75t107 29.5q86 0 148.5 -61.5t62.5 -159.5q0 -66 -34.5 -153t-116.5 -185.5t-221 -196.5z" />
<glyph unicode="(" horiz-adv-x="817" d="M154 590q0 317 153.5 566t425.5 403l49 -99q-119 -127 -194.5 -256t-111.5 -277.5t-36 -334.5t36 -334.5t113 -278t195 -258.5l-51 -98q-272 158 -425.5 404.5t-153.5 562.5z" />
<glyph unicode=")" horiz-adv-x="819" d="M33 -279q121 129 196.5 258.5t111.5 278t36 334.5t-36 334.5t-111.5 277.5t-194.5 256l49 99q272 -154 426 -403t154 -566q0 -315 -153 -562t-427 -405z" />
<glyph unicode="*" horiz-adv-x="1167" d="M127 1106l141 221l248 -182l59 307l248 -70l-100 -299l305 39l12 -262h-301l121 -287l-242 -94l-86 301l-233 -219l-160 205l254 186z" />
<glyph unicode="+" d="M164 436l20 154h408v405l153 21v-426h422l-20 -154h-402v-403l-153 -21v424h-428z" />
<glyph unicode="," horiz-adv-x="708" d="M123 -223q41 51 73.5 103t51.5 100l-119 178q0 47 25.5 92t71.5 74.5t108 29.5q86 0 148.5 -61.5t62.5 -159.5q0 -66 -35 -152.5t-117 -185t-221 -196.5z" />
<glyph unicode="-" horiz-adv-x="1107" d="M133 498l21 235h819l-21 -235h-819z" />
<glyph unicode="." horiz-adv-x="688" d="M133 141q0 88 62.5 150.5t148.5 62.5q88 0 149.5 -62.5t61.5 -150.5q0 -86 -61.5 -148.5t-149.5 -62.5q-86 0 -148.5 62.5t-62.5 148.5z" />
<glyph unicode="/" horiz-adv-x="1038" d="M41 0l725 1495l231 -20l-725 -1495z" />
<glyph unicode="0" horiz-adv-x="1200" d="M82 682q0 348 135 529.5t383 181.5t383 -182.5t135 -530.5q0 -346 -135 -528.5t-383 -182.5t-383 183.5t-135 529.5zM375 686q0 -215 59.5 -337t165.5 -122t165.5 118t59.5 333t-59 337t-166 122q-106 0 -165.5 -118t-59.5 -333z" />
<glyph unicode="1" horiz-adv-x="897" d="M82 0l20 248h236v745l-240 97v100l369 184h158v-1126h227l-21 -248h-749z" />
<glyph unicode="2" horiz-adv-x="1058" d="M57 1122q96 141 219 207t261 66q119 0 213 -46t148 -131t54 -206q0 -113 -53 -225.5t-158.5 -238.5t-263.5 -284h477l-22 -264h-834v215q199 211 322 351.5t180 236.5t57 172q0 70 -42 110.5t-109 40.5q-66 0 -125 -39.5t-113 -113.5z" />
<glyph unicode="3" horiz-adv-x="995" d="M8 -12l37 254q53 -8 106.5 -14.5t98.5 -6.5q166 0 263 69.5t97 182.5q0 72 -40 113t-115 41q-51 0 -113 -21l-41 197q61 20 120.5 58t99.5 87t40 99q0 45 -33.5 72.5t-91.5 27.5q-57 0 -118.5 -31t-114.5 -90l-172 188q84 84 194.5 132.5t235.5 48.5q115 0 199.5 -41 t132 -110.5t47.5 -158.5q0 -70 -32 -139t-101 -135q96 -45 146 -130t50 -194q0 -145 -85 -263t-237.5 -186.5t-357.5 -68.5q-104 0 -215 19z" />
<glyph unicode="4" horiz-adv-x="1175" d="M51 518l615 846h270v-827h158l-21 -230h-137v-307h-268v307h-596zM348 537h320v471z" />
<glyph unicode="5" horiz-adv-x="1005" d="M20 -12l37 254q53 -8 106.5 -14.5t98.5 -6.5q164 0 261.5 76t97.5 195q0 174 -189 174q-94 0 -180 -41l-115 84l39 655h696l-16 -242h-442l-13 -231q20 4 43 6t48 2q188 0 304.5 -106.5t116.5 -294.5q0 -152 -85 -272t-236 -188.5t-356 -68.5q-104 0 -216 19z" />
<glyph unicode="6" horiz-adv-x="1110" d="M92 578q0 240 65.5 424t200 288.5t342.5 104.5q41 0 92.5 -5.5t104.5 -17.5l-10 -237q-45 6 -87 10t-81 4q-137 0 -219 -70.5t-111 -247.5q72 25 135.5 36.5t118.5 11.5q182 0 278.5 -112t96.5 -308q0 -236 -132 -364t-347 -128q-135 0 -235.5 58.5t-156 192.5t-55.5 360 zM369 496q0 -127 49 -208t149 -81q78 0 125 55t47 174q0 94 -35.5 152.5t-119.5 58.5q-82 0 -211 -51q-2 -27 -3 -52.5t-1 -47.5z" />
<glyph unicode="7" horiz-adv-x="968" d="M53 1120l21 244h823v-217l-434 -1188l-301 61l454 1100h-563z" />
<glyph unicode="8" horiz-adv-x="1148" d="M88 373q0 115 47 209t137 157q-131 121 -131 289q0 121 60.5 202t162 123t220.5 42q117 0 213 -40t153.5 -117t57.5 -187q0 -94 -42 -177t-112 -149q84 -53 143.5 -134t59.5 -210q0 -184 -131 -298t-367 -114q-225 0 -348 107.5t-123 296.5zM358 397q0 -88 59 -138 t163 -50q96 0 147 40t51 109q0 70 -46 113t-118.5 77t-152.5 70q-53 -49 -78 -107t-25 -114zM420 1036q0 -76 71.5 -122t167.5 -89q37 35 57.5 84t20.5 97q0 82 -54 116.5t-114 34.5q-57 0 -103 -28.5t-46 -92.5z" />
<glyph unicode="9" horiz-adv-x="1110" d="M92 903q0 238 132 365t347 127q137 0 236.5 -58.5t155 -191.5t55.5 -361q0 -238 -65.5 -423t-199.5 -289.5t-343 -104.5q-41 0 -92.5 5t-104.5 18l10 237q47 -6 88 -10t80 -4q139 0 221 71.5t109 245.5q-72 -25 -135.5 -36t-118.5 -11q-180 0 -277.5 112t-97.5 308z M371 926q0 -94 35.5 -152.5t119.5 -58.5q82 0 211 51q2 29 3 53.5t1 46.5q0 127 -49 208t-149 81q-76 0 -124 -55.5t-48 -173.5z" />
<glyph unicode=":" horiz-adv-x="790" d="M184 162q0 86 61.5 147.5t149.5 61.5q86 0 148.5 -61.5t62.5 -147.5t-62.5 -148.5t-148.5 -62.5q-88 0 -149.5 62.5t-61.5 148.5zM184 905q0 86 61.5 147.5t149.5 61.5q86 0 148.5 -61.5t62.5 -147.5t-62.5 -148.5t-148.5 -62.5q-88 0 -149.5 62.5t-61.5 148.5z" />
<glyph unicode=";" horiz-adv-x="839" d="M184 -223q41 51 74 103t51 100l-119 178q0 47 26 92t72 74.5t107 29.5q86 0 148.5 -61.5t62.5 -159.5q0 -66 -34.5 -152.5t-117 -185t-221.5 -196.5zM193 905q0 86 61 147.5t149 61.5q86 0 148.5 -61.5t62.5 -147.5t-62.5 -148.5t-148.5 -62.5q-88 0 -149 62.5t-61 148.5 z" />
<glyph unicode="&#x3c;" d="M109 389l18 252l1077 459v-320l-715 -264l734 -278l-19 -314z" />
<glyph unicode="=" d="M164 287l20 153h983l-20 -153h-983zM164 635l20 153h983l-20 -153h-983z" />
<glyph unicode="&#x3e;" d="M109 238l733 278l-715 264v320l1077 -459l19 -252l-1096 -465z" />
<glyph unicode="?" horiz-adv-x="1046" d="M51 1169q25 92 89.5 169t162.5 122t223 45q117 0 207 -41t141.5 -117.5t51.5 -181.5q0 -80 -30 -145.5t-76 -119.5t-97 -107q-66 -68 -102.5 -105t-51 -61.5t-16.5 -57.5l-4 -77l-207 -19q-10 66 -13 97.5t-3 52.5q0 88 25.5 136t70.5 95q59 61 110.5 105.5t84 87.5 t32.5 98t-35.5 89t-97.5 34q-57 0 -114.5 -38t-75.5 -134q-72 16 -140.5 34.5t-134.5 38.5zM252 143q0 78 56.5 135.5t135.5 57.5q80 0 136.5 -57.5t56.5 -137.5q0 -78 -56.5 -135t-136.5 -57q-78 0 -135 57t-57 137z" />
<glyph unicode="@" horiz-adv-x="1685" d="M123 537q0 166 59.5 308t165 248.5t249.5 167t312 60.5q193 0 340.5 -78t230.5 -218t83 -327q0 -199 -98.5 -313.5t-280.5 -128.5q-23 -2 -49.5 -3t-61.5 -1t-73.5 1t-67.5 3l12 86h-8q-39 -47 -96.5 -73.5t-116.5 -26.5q-76 0 -123 40t-67.5 103.5t-20.5 134.5 q0 78 22.5 153t67.5 132q47 61 119 99t176 38q102 0 250 -43l-60 -508q29 -2 58 0t55 4q100 12 151.5 81t51.5 206q0 156 -62.5 267.5t-175 171t-264.5 59.5q-180 0 -320.5 -83t-219 -224.5t-78.5 -321.5q0 -164 67.5 -288t193.5 -192.5t300 -68.5q76 0 156.5 14.5 t160.5 46.5l-18 -159q-63 -20 -155.5 -32.5t-172.5 -12.5q-207 0 -362.5 86t-242.5 239.5t-87 352.5zM680 532q0 -145 92 -145q45 0 89 34t79 91l33 270q-41 18 -94 19q-70 0 -114 -40t-64.5 -101.5t-20.5 -127.5z" />
<glyph unicode="A" horiz-adv-x="1390" d="M14 0l500 1364h356l506 -1364h-307l-111 311h-536l-105 -311h-303zM508 565h362l-184 522z" />
<glyph unicode="B" horiz-adv-x="1165" d="M143 0v1364h457q201 0 315.5 -95t114.5 -259q0 -186 -162 -287q215 -86 215 -303q0 -125 -62.5 -219.5t-170 -147.5t-246.5 -53h-461zM428 227h131q111 0 173.5 51.5t62.5 137.5q0 78 -52.5 121t-154.5 43h-160v-353zM428 809h102q102 0 158.5 48t56.5 130 q0 152 -188 152h-129v-330z" />
<glyph unicode="C" horiz-adv-x="1216" d="M84 647q0 223 87 388t245.5 257t369.5 92q88 0 170 -16t158 -45l-55 -264q-68 31 -135.5 47t-135.5 16q-188 0 -295.5 -122.5t-107.5 -323.5q0 -207 114.5 -321.5t317.5 -114.5q61 0 128 11t130 32l45 -252q-150 -58 -340 -58q-326 0 -511 176.5t-185 497.5z" />
<glyph unicode="D" horiz-adv-x="1402" d="M141 0v1364q66 2 131.5 2h128.5h131.5t129.5 -2q203 -2 350 -81t228 -223.5t81 -340.5q0 -215 -93 -376t-261 -250t-394 -93q-53 -2 -107.5 -2h-107.5h-109t-108 2zM438 258h133q207 0 326 121t119 332q0 190 -101.5 292.5t-291.5 102.5h-185v-848z" />
<glyph unicode="E" horiz-adv-x="1085" d="M143 0v1364h830v-258h-537v-272h445v-250h-445v-326h537v-258h-830z" />
<glyph unicode="F" horiz-adv-x="1058" d="M143 0v1364h834v-258h-537v-311h445v-256h-445v-539h-297z" />
<glyph unicode="G" horiz-adv-x="1409" d="M92 643q0 223 93.5 389t261 258t391.5 92q127 0 240.5 -28.5t201.5 -81.5l-72 -246q-80 49 -177 76.5t-193 27.5q-135 0 -237.5 -58t-160 -162.5t-57.5 -245.5q0 -205 124 -323t339 -118q86 0 160 13v282h-172v240h444v-709q-211 -80 -453 -80q-229 0 -393 81t-252 231.5 t-88 361.5z" />
<glyph unicode="H" horiz-adv-x="1466" d="M143 0v1364h299v-528h580v528h301v-1364h-301v582h-580v-582h-299z" />
<glyph unicode="I" horiz-adv-x="616" d="M160 0v1364h297v-1364h-297z" />
<glyph unicode="J" horiz-adv-x="692" d="M-27 12l78 248q27 -14 53.5 -23.5t55.5 -9.5q47 0 74.5 30t27.5 97v1010h287v-1034q0 -166 -97.5 -263.5t-261.5 -97.5q-51 0 -107 10.5t-110 32.5z" />
<glyph unicode="K" horiz-adv-x="1259" d="M143 0v1364h297v-528l445 528h354l-561 -647l532 -717h-360l-410 551v-551h-297z" />
<glyph unicode="L" horiz-adv-x="993" d="M143 0v1364h297v-1106h492v-258h-789z" />
<glyph unicode="M" horiz-adv-x="1865" d="M92 0l129 1364h369l348 -979l338 979h369l124 -1364h-266l-94 958l-360 -972l-244 -23l-363 1000l-86 -963h-264z" />
<glyph unicode="N" horiz-adv-x="1472" d="M143 0v1364h349l565 -956v956h272v-1364h-344l-569 963v-963h-273z" />
<glyph unicode="O" horiz-adv-x="1517" d="M82 676q0 213 85 370.5t237.5 245.5t355.5 88t355.5 -87t236.5 -243.5t84 -365.5q0 -213 -84 -372.5t-236.5 -249t-355.5 -89.5t-355.5 88.5t-237.5 247t-85 367.5zM389 676q0 -133 46 -232.5t130 -155t195 -55.5q170 0 270 121t100 322q0 133 -46 233.5t-130 155.5 q-81 53 -186 53h-8h-8q-106 0 -186 -53q-83 -55 -130 -155.5t-47 -233.5z" />
<glyph unicode="P" horiz-adv-x="1120" d="M143 0v1364q45 2 103.5 2h122.5h122.5t104.5 -2q209 -4 331 -111.5t122 -302.5q0 -139 -62.5 -243.5t-172 -162t-253.5 -57.5h-133v-487h-285zM428 729h121q100 0 156.5 57.5t56.5 155.5q0 180 -199 180h-135v-393z" />
<glyph unicode="Q" horiz-adv-x="1527" d="M82 674q0 213 85 370.5t237.5 245.5t355.5 88t355.5 -87t236.5 -242.5t84 -366.5q0 -158 -48.5 -289t-136.5 -225l191 -98l-31 -281l-430 213q-100 -31 -221 -31q-203 0 -355.5 88t-237.5 247t-85 368zM389 674q0 -131 45 -230.5t128 -155t194 -57.5l18 187l211 -111 q70 57 107.5 151.5t37.5 215.5q0 135 -46 235.5t-130 155.5q-81 53 -186 53h-8h-8q-106 0 -186 -54q-83 -56 -130 -156.5t-47 -233.5z" />
<glyph unicode="R" horiz-adv-x="1146" d="M135 0v1364q47 2 106.5 2h123.5h124.5t106.5 -2q242 -8 352.5 -117.5t110.5 -279.5q0 -150 -77 -255.5t-214 -140.5q47 -37 92 -99t121 -183q39 -59 64.5 -104.5t50 -87.5t55.5 -97h-344l-232 430q-39 72 -69.5 87t-85.5 15v-532h-285zM420 760h127q106 0 165.5 53 t59.5 143q0 168 -209 168h-143v-364z" />
<glyph unicode="S" horiz-adv-x="1107" d="M92 72l25 274q92 -57 193.5 -89t187.5 -32q98 0 159.5 41t61.5 109q0 49 -31 76.5t-80 48t-108 45.5q-68 29 -138.5 59.5t-131 74.5t-98.5 113.5t-38 176.5q0 195 133 308.5t371 113.5q182 0 369 -74l-45 -270q-76 43 -163 67.5t-165 24.5q-96 0 -149.5 -38t-53.5 -102 q0 -59 44 -90.5t112 -60.5t148.5 -58.5t153.5 -75.5t120 -123t47 -198q0 -199 -134 -309.5t-378 -110.5q-121 0 -228.5 27t-183.5 72z" />
<glyph unicode="T" horiz-adv-x="1163" d="M61 1106v258h1041v-258h-369v-1106h-299v1106h-373z" />
<glyph unicode="U" horiz-adv-x="1425" d="M143 547v817h299v-795q0 -152 73 -240.5t198 -88.5t198.5 90t73.5 239v795h297v-817q0 -172 -70.5 -301t-198.5 -201t-300 -72q-170 0 -299 72t-200 201t-71 301z" />
<glyph unicode="V" horiz-adv-x="1318" d="M20 1364h328l324 -1040l321 1040h305l-458 -1364h-359z" />
<glyph unicode="W" horiz-adv-x="2093" d="M61 1364h316l237 -981l244 973l383 28l258 -1030l240 1010h293l-369 -1364h-358l-265 1079l-274 -1079h-354z" />
<glyph unicode="X" horiz-adv-x="1378" d="M12 0l486 700l-451 664h352l297 -438l297 438h328l-449 -647l494 -717h-362l-330 481l-320 -481h-342z" />
<glyph unicode="Y" horiz-adv-x="1243" d="M10 1364h334l277 -539l274 539h328l-459 -797v-567h-297v567z" />
<glyph unicode="Z" horiz-adv-x="1208" d="M92 0v223l651 883h-632v258h995v-234l-647 -872h647v-258h-1014z" />
<glyph unicode="[" horiz-adv-x="663" d="M154 -373v1889h438l-21 -213h-192v-1463h213l-21 -213h-417z" />
<glyph unicode="\" horiz-adv-x="999" d="M-4 1382h274l731 -1382h-272z" />
<glyph unicode="]" horiz-adv-x="663" d="M72 -373l20 213h193v1463h-213l20 213h418v-1889h-438z" />
<glyph unicode="^" horiz-adv-x="1380" d="M113 582l456 813h265l434 -813h-310l-260 604l-282 -604h-303z" />
<glyph unicode="_" horiz-adv-x="1198" d="M23 0h1153v-225h-1153v225z" />
<glyph unicode="`" horiz-adv-x="1228" d="M432 1343q0 74 47.5 135.5t122 106.5t158.5 68l37 -80q-80 -63 -125 -135l53 -109q0 -53 -40 -97t-103 -44q-61 0 -105.5 43t-44.5 112z" />
<glyph unicode="a" horiz-adv-x="1140" d="M82 487q0 291 147.5 443.5t423.5 152.5q156 0 365 -49v-1034h-275l7 168h-9q-106 -199 -303 -199q-162 0 -259 138.5t-97 379.5zM360 500q0 -129 37 -204t103 -75q68 0 129 72t110 176v344q-33 10 -67.5 14t-63.5 4q-248 0 -248 -331z" />
<glyph unicode="b" horiz-adv-x="1181" d="M133 18v1477h285v-543q121 131 297 131q182 0 283.5 -136t101.5 -380q0 -291 -149.5 -444.5t-430.5 -153.5q-82 0 -182 13.5t-205 35.5zM418 240q33 -8 67.5 -13.5t65.5 -5.5q260 0 260 330q0 133 -43 206.5t-125 73.5q-133 0 -225 -180v-411z" />
<glyph unicode="c" horiz-adv-x="983" d="M74 502q0 174 67.5 305t190.5 203.5t284 72.5q78 0 160 -17t127 -40l-55 -244q-47 23 -104.5 36t-104.5 13q-125 0 -203 -86t-78 -227q0 -143 80 -221t224 -78q96 0 206 37l43 -233q-70 -27 -140 -40.5t-146 -13.5q-262 0 -406.5 139.5t-144.5 393.5z" />
<glyph unicode="d" horiz-adv-x="1181" d="M82 485q0 291 150.5 444.5t429.5 153.5q29 0 53 -1t51 -3v416h285v-1495h-281l6 137h-8q-108 -168 -305 -168q-176 0 -278.5 136.5t-102.5 379.5zM371 502q0 -131 41.5 -206t115.5 -75q66 0 127.5 56.5t110.5 160.5v375q-70 18 -133 18q-129 0 -195.5 -83.5t-66.5 -245.5 z" />
<glyph unicode="e" horiz-adv-x="1153" d="M82 526q0 172 63.5 297t179 192.5t271.5 67.5q229 0 352 -147.5t123 -425.5v-35.5t-2 -34.5h-696q41 -221 293 -221q78 0 158.5 19.5t142.5 52.5l47 -232q-170 -90 -383 -90q-254 0 -401.5 147.5t-147.5 409.5zM371 657h424q-6 88 -61.5 140.5t-147.5 52.5 q-88 0 -144.5 -51.5t-70.5 -141.5z" />
<glyph unicode="f" horiz-adv-x="925" d="M94 0v248h187v559h-187v248h187v129q0 154 99 247t261 93q115 0 254 -58l-100 -227q-70 35 -125 35q-100 0 -101 -105v-114h246v-248h-246v-559h246v-248h-721z" />
<glyph unicode="g" horiz-adv-x="1181" d="M82 483q0 293 151.5 446.5t430.5 153.5q84 0 182 -13t203 -36q2 -158 3 -317.5t1 -317.5v-143.5t-2 -142.5q-4 -291 -145.5 -434.5t-430.5 -143.5q-74 0 -167 10.5t-189 36.5l55 254q84 -25 166 -41t162 -16q106 0 162.5 33.5t79 105.5t26.5 186h-6q-117 -135 -299 -135 q-180 0 -281.5 136.5t-101.5 377.5zM371 504q0 -133 44 -208t126 -75q66 0 122 48t101 132v412q-68 18 -131 18q-131 0 -196.5 -83.5t-65.5 -243.5z" />
<glyph unicode="h" horiz-adv-x="1241" d="M133 0v1495h289v-594q66 96 147.5 139t186.5 43q170 0 266 -101t96 -282v-700h-289v655q0 84 -40.5 129t-110.5 45q-78 0 -146.5 -53t-109.5 -137v-639h-289z" />
<glyph unicode="i" horiz-adv-x="815" d="M96 0v248h197v559h-197v248h486v-807h176v-248h-662zM256 1229v266h330v-266h-330z" />
<glyph unicode="j" horiz-adv-x="620" d="M-88 -436l76 239q47 -22 90 -22h4q104 0 104 127v1147h289v-1170q0 -168 -97 -265t-261 -97q-104 0 -205 41zM166 1229v266h330v-266h-330z" />
<glyph unicode="k" horiz-adv-x="1116" d="M133 0v1497h289v-827l330 385h342l-422 -473l444 -570l-313 -43l-381 490v-459h-289z" />
<glyph unicode="l" horiz-adv-x="804" d="M86 0v248h186v1001h-176v246h465v-1247h187v-248h-662z" />
<glyph unicode="m" horiz-adv-x="1931" d="M133 0v1055h283v-164q124 192 336 192h2q121 0 205.5 -57t123.5 -160q72 113 161 165t204 52q170 0 265 -101t95 -282v-700h-288v655q0 84 -40 129t-108 45q-86 0 -156.5 -69.5t-105.5 -177.5v-582h-289v655q0 82 -41 128t-108 46q-74 0 -141.5 -56t-108.5 -159v-614 h-289z" />
<glyph unicode="n" horiz-adv-x="1253" d="M133 0v1055h283v-183q66 111 152.5 161t199.5 50q170 0 266 -101t96 -282v-700h-288v655q0 84 -41 129t-111 45q-84 0 -156.5 -62t-111.5 -155v-612h-289z" />
<glyph unicode="o" horiz-adv-x="1236" d="M82 526q0 168 67.5 293t188.5 194.5t280 69.5q162 0 282 -68.5t187.5 -192.5t67.5 -290q0 -168 -66.5 -294.5t-187 -197.5t-280.5 -71q-162 0 -283 70t-188.5 194.5t-67.5 292.5zM375 528q0 -139 66 -224t177 -85t177.5 85t66.5 224t-66.5 222.5t-177.5 83.5t-177 -83 t-66 -223z" />
<glyph unicode="p" horiz-adv-x="1181" d="M133 -446v1501h281l-6 -137h8q108 167 303 167h2q176 0 278.5 -136t102.5 -380q0 -291 -150.5 -444.5t-429.5 -153.5q-27 0 -52.5 1t-51.5 3v-421h-285zM418 242q72 -19 133 -19q129 0 195.5 84t66.5 246q0 133 -42 207t-116 74q-63 0 -125.5 -56.5t-111.5 -161.5v-374z " />
<glyph unicode="q" horiz-adv-x="1181" d="M82 483q0 293 150.5 446.5t431.5 153.5q78 0 178 -12t207 -35v-1482h-285v550q-117 -135 -299 -135q-180 0 -281.5 136.5t-101.5 377.5zM371 504q0 -133 44 -208t126 -75q66 0 122 48t101 132v412q-68 18 -131 18q-131 0 -196.5 -83.5t-65.5 -243.5z" />
<glyph unicode="r" horiz-adv-x="817" d="M139 0v1055h289v-172h16q53 94 111.5 148t153.5 54q37 0 61 -8l-31 -311q-23 6 -43 10t-43 4q-76 0 -121 -44t-104 -118v-618h-289z" />
<glyph unicode="s" horiz-adv-x="960" d="M86 45l27 246q70 -43 153.5 -69.5t157.5 -26.5q66 0 115 24.5t49 75.5q0 49 -52.5 71.5t-160.5 63.5q-41 16 -91.5 36.5t-95.5 54.5t-73.5 88.5t-28.5 135.5q0 111 56.5 186t154.5 113.5t221 38.5q84 0 165 -16t155 -43l-39 -244q-59 35 -134 56.5t-141 21.5 q-63 0 -105 -21.5t-42 -66.5q0 -37 28.5 -58.5t77.5 -37t109 -39.5q59 -23 125.5 -57.5t114 -98t47.5 -174.5q0 -117 -58.5 -191.5t-158 -109.5t-224.5 -35q-100 0 -193 20.5t-159 55.5z" />
<glyph unicode="t" horiz-adv-x="862" d="M47 807v248h164v225q147 25 287 37v-262h266v-248h-266v-498q0 -88 98 -88q57 0 131 27l64 -217q-132 -62 -271 -62q-147 0 -228 75t-81 212v551h-164z" />
<glyph unicode="u" horiz-adv-x="1226" d="M123 354v701h289v-654q0 -84 41 -130t110 -46q72 0 135.5 45t106.5 121v664h289v-1055h-289v139q-53 -72 -129 -120t-193 -48q-168 0 -264 103.5t-96 279.5z" />
<glyph unicode="v" horiz-adv-x="1120" d="M10 1051l316 28l233 -760l223 736h310l-371 -1055h-338z" />
<glyph unicode="w" horiz-adv-x="1740" d="M14 1055h295l189 -699l202 693l326 26l219 -739l193 719h274l-321 -1055h-316l-217 766l-227 -766h-309z" />
<glyph unicode="x" horiz-adv-x="1116" d="M16 0l390 545l-353 510l320 16l198 -299l185 283h315l-348 -496l379 -559l-320 -16l-227 340l-211 -324h-328z" />
<glyph unicode="y" horiz-adv-x="1110" d="M12 1051l299 24l252 -756l234 736h284q-45 -137 -98 -291t-109.5 -308.5t-109.5 -292.5t-100.5 -247t-81.5 -172q-55 -98 -125 -150.5t-174 -52.5q-51 0 -99.5 12.5t-97.5 32.5l43 238q78 -39 131 -39q68 0 99.5 47t64.5 137z" />
<glyph unicode="z" horiz-adv-x="1030" d="M78 2v188l506 617h-471v248h823v-189l-504 -618h504v-246h-858z" />
<glyph unicode="{" horiz-adv-x="774" d="M92 457v270q121 -4 171 58.5t50 220.5v510l256 20v-461q0 -100 -6 -173t-26.5 -126t-65.5 -96t-123 -88q78 -45 123 -89t65.5 -97.5t26.5 -125t6 -171.5v-461l-256 20v510q0 158 -50 220.5t-171 58.5z" />
<glyph unicode="|" horiz-adv-x="1003" d="M410 -457v1942l184 20v-1941z" />
<glyph unicode="}" horiz-adv-x="774" d="M205 109q0 100 6 171.5t26.5 125t65.5 97.5t123 89q-78 45 -123 88t-65.5 96t-26.5 126t-6 173v461l256 -20v-510q0 -158 51 -220.5t170 -58.5v-270q-119 4 -170 -58.5t-51 -220.5v-510l-256 -20v461z" />
<glyph unicode="~" d="M156 426l10 162q82 47 147.5 66.5t128.5 19.5q80 0 161 -23.5t159 -46t147 -22.5q104 0 267 88l-11 -160q-72 -45 -137 -64.5t-129 -19.5q-84 0 -165 23.5t-157.5 47t-150.5 23.5q-63 0 -122.5 -22.5t-147.5 -71.5z" />
<glyph unicode="&#xa1;" horiz-adv-x="802" d="M205 938q0 78 57 134t133 56q78 0 134.5 -56t56.5 -134t-56.5 -135.5t-134.5 -57.5t-134 57.5t-56 135.5zM207 -430l76 1026h241l74 -985z" />
<glyph unicode="&#xa2;" horiz-adv-x="1087" d="M74 502q0 174 67.5 305t190.5 203.5t284 72.5h19l98 412l178 -20l-100 -416q29 -8 52.5 -15.5t39.5 -17.5l-55 -244q-20 10 -45 18.5t-51 16.5l-142 -596q12 -2 24.5 -2h27.5q96 0 206 37l43 -233q-70 -27 -140.5 -40.5t-145.5 -13.5q-20 0 -39 1t-37 3l-96 -401l-177 20 l101 418q-145 55 -224 180t-79 312zM358 518q0 -147 86 -227l127 534q-96 -23 -154.5 -104.5t-58.5 -202.5z" />
<glyph unicode="&#xa3;" horiz-adv-x="1220" d="M61 647v236h181v233q0 133 54 224.5t147.5 137.5t209.5 46q88 0 187.5 -25.5t199.5 -79.5l-88 -233q-150 80 -260 80q-76 0 -119 -45t-43 -142v-196h355v-236h-355v-399h527v-248h-815v647h-181z" />
<glyph unicode="&#xa4;" horiz-adv-x="1443" d="M113 567q0 115 32.5 211t90.5 172l-107 107l102 133l125 -125q150 104 359 104q215 0 366 -110l117 115l133 -103l-129 -129q55 -76 85 -170t30 -205q0 -209 -105 -360l95 -94l-101 -133l-108 108q-76 -57 -172 -90t-211 -33q-111 0 -206 31t-171 86l-90 -90l-133 102 l106 107q-51 74 -79.5 167t-28.5 199zM293 567q0 -129 53 -227t148.5 -154.5t220.5 -56.5t220 56.5t148.5 154.5t53.5 227t-53.5 228.5t-148.5 155t-220 55.5t-220.5 -55.5t-148.5 -155t-53 -228.5z" />
<glyph unicode="&#xa5;" horiz-adv-x="1253" d="M20 1364h334l277 -539l274 539h328l-387 -672h209l-21 -133h-260v-113h281l-21 -133h-260v-313h-297v313h-262l21 133h241v113h-262l21 133h170z" />
<glyph unicode="&#xa6;" horiz-adv-x="1003" d="M410 223l184 21v-680l-184 -21v680zM410 805v680l184 20v-680z" />
<glyph unicode="&#xa7;" horiz-adv-x="1193" d="M133 627q0 94 39 169.5t125 145.5q-45 63 -65.5 118.5t-20.5 119.5q0 113 58.5 191.5t159.5 119.5t228 41q88 0 173 -18.5t163 -47.5l-37 -262q-61 39 -137 61.5t-141 22.5q-68 0 -110 -25.5t-42 -76.5q0 -49 39 -96.5t99.5 -95.5t129 -103t129 -122t99.5 -149.5 t39 -187.5q0 -94 -39 -171t-125 -148q45 -59 66.5 -115.5t21.5 -122.5q0 -109 -57.5 -187.5t-157.5 -120.5t-229 -42q-88 0 -174 19.5t-164 47.5l37 263q61 -39 137 -62.5t141 -23.5q68 0 110 25.5t42 76.5t-39 98t-100.5 95.5t-129 103.5t-129 121.5t-100.5 149.5t-39 188z M430 653q0 -72 42 -130t108.5 -116.5t140.5 -130.5q18 23 29.5 50.5t11.5 66.5q0 76 -43 135.5t-109.5 118t-138.5 125.5q-20 -25 -30.5 -55.5t-10.5 -63.5z" />
<glyph unicode="&#xa8;" horiz-adv-x="1228" d="M215 1362q0 68 50 115t116 47t113 -47t47 -115t-50 -115t-116 -47t-113 47t-47 115zM688 1362q0 68 51.5 115t114.5 47q66 0 113 -47t47 -115t-47 -115t-119 -47q-63 0 -111.5 47t-48.5 115z" />
<glyph unicode="&#xa9;" horiz-adv-x="1646" d="M92 678q0 217 93.5 381t258 257t379.5 93q217 0 381 -93t257 -257t93 -381q0 -215 -93 -380t-257 -258t-381 -93q-215 0 -379.5 93t-258 258t-93.5 380zM258 678q0 -172 71.5 -305t199.5 -208t294 -75q168 0 295 75t199 208t72 305q0 174 -72 306t-199 207t-295 75 q-166 0 -294 -75t-199.5 -207t-71.5 -306zM449 664q0 190 110.5 304.5t290.5 114.5q100 0 188 -34l-32 -150q-80 35 -154 35q-106 0 -168.5 -70.5t-62.5 -185.5q0 -119 65.5 -185.5t183.5 -66.5q68 0 146 23l24 -140q-86 -30 -190 -30q-188 0 -294.5 100t-106.5 285z" />
<glyph unicode="&#xaa;" horiz-adv-x="923" d="M133 557v100h658v-100h-658zM147 1090q0 174 87.5 267t248.5 93q49 0 105.5 -7t122.5 -22v-622h-166l4 71h-4q-31 -43 -78 -66.5t-100 -23.5q-102 0 -161 83t-59 227zM315 1102q0 -80 26 -125t71 -45q76 0 131 112v244q-45 10 -78 10q-150 0 -150 -196z" />
<glyph unicode="&#xab;" horiz-adv-x="1492" d="M164 567l438 535l191 -141l-258 -394l272 -401l-189 -131zM717 567l438 535l191 -141l-259 -394l273 -401l-189 -131z" />
<glyph unicode="&#xac;" d="M164 653l20 154h983v-471l-153 -21v338h-850z" />
<glyph unicode="&#xad;" horiz-adv-x="1107" d="M133 498l21 235h819l-21 -235h-819z" />
<glyph unicode="&#xae;" horiz-adv-x="1646" d="M92 678q0 217 93.5 381t258 257t379.5 93q217 0 381 -93t257 -257t93 -381q0 -215 -93 -380t-257 -258t-381 -93q-215 0 -379.5 93t-258 258t-93.5 380zM258 678q0 -172 71.5 -305t199.5 -208t294 -75q168 0 295 75t199 208t72 305q0 174 -72 306t-199 207t-295 75 q-166 0 -294 -75t-199.5 -207t-71.5 -306zM578 297v778q27 2 60.5 2h68.5h71.5t61.5 -2q133 -4 198.5 -64.5t65.5 -162.5q0 -80 -41 -141.5t-123 -81.5q33 -23 54.5 -55.5t66.5 -108.5q31 -51 45 -76t20.5 -36t11.5 -20.5t17 -31.5h-194l-132 246q-20 41 -38.5 49t-51.5 8 v-303h-161zM739 731h74q59 0 93 30t34 81q0 96 -119 96h-82v-207z" />
<glyph unicode="&#xaf;" horiz-adv-x="1228" d="M273 1225v182h684v-182h-684z" />
<glyph unicode="&#xb0;" horiz-adv-x="839" d="M164 1272q0 115 71.5 185.5t184.5 70.5q115 0 185.5 -71t70.5 -185q0 -113 -70.5 -184.5t-185.5 -71.5q-113 0 -184.5 71.5t-71.5 184.5zM297 1272q0 -57 35 -92t88 -35t88 34.5t35 92.5q0 57 -35 93t-88 36t-88 -36t-35 -93z" />
<glyph unicode="&#xb1;" d="M184 0l21 154h942l-21 -154h-942zM184 621l21 153h387v303l153 21v-324h402l-21 -153h-381v-302l-153 -20v322h-408z" />
<glyph unicode="&#xb2;" horiz-adv-x="825" d="M164 1354q53 78 121.5 113.5t144.5 35.5q98 0 165 -55t67 -156q0 -94 -67 -189t-198 -226h265l-15 -148h-461v119q111 117 179.5 194.5t100.5 131t32 94.5q0 39 -23.5 60.5t-62.5 21.5q-68 0 -133 -84z" />
<glyph unicode="&#xb3;" horiz-adv-x="792" d="M131 721l21 141q31 -4 59.5 -7t54.5 -3q92 0 145.5 38t53.5 101q0 86 -86 86q-27 0 -62 -12l-22 109q51 16 97 55t46 82q0 55 -69 55q-68 0 -129 -68l-97 105q47 47 108.5 73.5t131.5 26.5q96 0 153.5 -49t57.5 -123q0 -39 -17.5 -78t-56.5 -73q53 -27 81 -74t28 -107 q0 -82 -47 -147.5t-132 -103t-200 -37.5q-27 0 -57.5 3t-61.5 7z" />
<glyph unicode="&#xb4;" horiz-adv-x="1228" d="M432 1268q80 63 125 135l-53 108q0 53 40 97.5t103 44.5q61 0 105.5 -43t44.5 -113q0 -74 -47 -135.5t-122 -106t-159 -67.5z" />
<glyph unicode="&#xb5;" horiz-adv-x="1247" d="M164 -449v1504h289v-654q0 -84 41 -130t110 -46q72 0 135.5 45t106.5 121v664h289v-1055h-289v139q-53 -72 -129 -120t-193 -48q-37 0 -71 6v-426h-289z" />
<glyph unicode="&#xb6;" horiz-adv-x="1286" d="M92 1128q0 100 49 183.5t133 133.5t187 50h702v-215h-119v-1534h-221v1534h-176v-1534h-219v1020q-94 8 -170 59.5t-121 130t-45 172.5z" />
<glyph unicode="&#xb7;" horiz-adv-x="626" d="M113 580q0 82 58 139t140 57t140.5 -57t58.5 -139t-58.5 -140.5t-140.5 -58.5t-140 58.5t-58 140.5z" />
<glyph unicode="&#xb8;" horiz-adv-x="1228" d="M361 -406l61 89q43 -29 90 -47.5t86 -18.5q33 0 53.5 15.5t20.5 48.5q0 41 -50 52t-104 9l-43 29l95 274l147 -10l-66 -150q96 -14 157 -64t61 -130q0 -84 -74 -136.5t-170 -52.5q-74 0 -145.5 26t-118.5 66z" />
<glyph unicode="&#xb9;" horiz-adv-x="782" d="M186 729l11 139h120v414l-112 55v56l182 102h84v-627h127l-10 -139h-402z" />
<glyph unicode="&#xba;" horiz-adv-x="923" d="M133 557v100h658v-100h-658zM137 1116q0 150 89 242t233 92q145 0 233 -90t88 -242q0 -150 -88 -244t-231 -94q-145 0 -234.5 92.5t-89.5 243.5zM311 1116q0 -84 41 -135t107 -51t106.5 51t40.5 135t-41 134t-106 50q-66 0 -107 -50t-41 -134z" />
<glyph unicode="&#xbb;" horiz-adv-x="1492" d="M133 166l273 401l-259 394l191 141l438 -535l-454 -532zM686 166l272 401l-258 394l191 141l438 -535l-455 -532z" />
<glyph unicode="&#xbc;" horiz-adv-x="1822" d="M188 602l11 139h120v414l-112 55v56l182 102h84v-627h127l-10 -139h-402zM391 -2l924 1376l139 -16l-926 -1378zM1057 293l342 471h149v-461h90l-14 -127h-76v-176h-149v176h-330zM1223 303h176v262z" />
<glyph unicode="&#xbd;" horiz-adv-x="1871" d="M186 602l11 139h120v414l-112 55v56l182 102h84v-627h127l-10 -139h-402zM389 -2l924 1376l139 -16l-926 -1378zM1190 625q53 78 121.5 113.5t144.5 35.5q98 0 165 -55t67 -156q0 -94 -67 -189t-198 -227h265l-15 -147h-461v119q111 117 179.5 194.5t100.5 131t32 94.5 q0 39 -23.5 60.5t-62.5 21.5q-68 0 -133 -84z" />
<glyph unicode="&#xbe;" horiz-adv-x="1859" d="M186 598l21 141q31 -4 59.5 -7t55.5 -3q92 0 145 38t53 101q0 86 -86 86q-27 0 -61 -12l-23 109q51 16 97.5 55t46.5 82q0 55 -70 55q-68 0 -129 -67l-96 104q47 47 108.5 73.5t130.5 26.5q96 0 153.5 -49t57.5 -123q0 -39 -17.5 -77.5t-56.5 -73.5q53 -27 81 -74 t28 -106q0 -82 -47 -147.5t-132 -103.5t-200 -38q-27 0 -57.5 3t-61.5 7zM428 -2l924 1376l139 -16l-926 -1378zM1094 293l342 471h149v-461h90l-14 -127h-76v-176h-149v176h-330zM1260 303h176v262z" />
<glyph unicode="&#xbf;" horiz-adv-x="1058" d="M123 -98q0 82 29.5 146.5t75.5 119.5t98 106q68 68 103.5 105t50 61.5t16.5 57.5l4 77l207 19q10 -63 13 -96t3 -54q0 -88 -25.5 -136t-70.5 -95q-57 -61 -109.5 -105.5t-85.5 -87.5t-33 -98t36 -89t97 -34q59 0 116 39t75 133q72 -14 140.5 -32.5t133.5 -40.5 q-25 -92 -89 -168t-162.5 -122t-223.5 -46q-117 0 -207 42t-141 117.5t-51 180.5zM412 926q0 78 56 135t136 57q78 0 135.5 -57t57.5 -137q0 -78 -56.5 -135.5t-136.5 -57.5t-136 57.5t-56 137.5z" />
<glyph unicode="&#xc0;" horiz-adv-x="1390" d="M14 0l500 1364h356l506 -1364h-307l-111 311h-536l-105 -311h-303zM508 565h362l-184 522zM553 1652q0 74 47.5 135.5t122 106.5t158.5 68l37 -80q-80 -63 -125 -135l53 -109q0 -53 -40 -97t-103 -44q-61 0 -105.5 43t-44.5 112z" />
<glyph unicode="&#xc1;" horiz-adv-x="1390" d="M14 0l500 1364h356l506 -1364h-307l-111 311h-536l-105 -311h-303zM508 565h362l-184 522zM633 1577q80 63 125 135l-53 108q0 53 40 97.5t103 44.5q61 0 105.5 -43t44.5 -113q0 -74 -47 -135.5t-122 -106t-159 -67.5z" />
<glyph unicode="&#xc2;" horiz-adv-x="1390" d="M14 0l500 1364h356l506 -1364h-307l-111 311h-536l-105 -311h-303zM352 1638l344 270l344 -270l-90 -141l-254 137l-254 -137zM508 565h362l-184 522z" />
<glyph unicode="&#xc3;" horiz-adv-x="1390" d="M14 0l500 1364h356l506 -1364h-307l-111 311h-536l-105 -311h-303zM294 1587q35 133 102.5 192.5t151.5 59.5q74 0 131.5 -33t106.5 -64.5t94 -31.5q33 0 60.5 27.5t54.5 97.5l110 -84q-33 -131 -101 -191.5t-152 -60.5q-74 0 -131.5 31.5t-106.5 64.5t-94 33 q-33 0 -60.5 -27.5t-54.5 -97.5zM508 565h362l-184 522z" />
<glyph unicode="&#xc4;" horiz-adv-x="1390" d="M14 0l500 1364h356l506 -1364h-307l-111 311h-536l-105 -311h-303zM297 1671q0 68 50 115t116 47t113 -47t47 -115t-50 -115t-116 -47t-113 47t-47 115zM508 565h362l-184 522zM770 1671q0 68 51.5 115t114.5 47q66 0 113 -47t47 -115t-47 -115t-119 -47q-63 0 -111.5 47 t-48.5 115z" />
<glyph unicode="&#xc5;" horiz-adv-x="1390" d="M14 0l500 1364h356l506 -1364h-307l-111 311h-536l-105 -311h-303zM432 1741q0 74 36 131t95.5 91t132.5 34q74 0 133.5 -34t95.5 -91.5t36 -130.5q0 -72 -36 -130.5t-95.5 -92t-133.5 -33.5t-133 33.5t-95 92t-36 130.5zM508 565h362l-184 522zM594 1741q0 -43 28.5 -77 t73.5 -34q47 0 75 34t28 77t-28 76.5t-75 33.5q-45 0 -73.5 -33.5t-28.5 -76.5z" />
<glyph unicode="&#xc6;" horiz-adv-x="1828" d="M0 0l672 1364h1044v-258h-536v-272h444v-250h-444v-326h536v-258h-829v311h-432l-152 -311h-303zM580 565h307v557h-37z" />
<glyph unicode="&#xc7;" horiz-adv-x="1216" d="M84 647q0 223 87 388t245.5 257t369.5 92q88 0 170 -16t158 -45l-55 -264q-68 31 -135.5 47t-135.5 16q-188 0 -295.5 -122.5t-107.5 -323.5q0 -207 114.5 -321.5t317.5 -114.5q61 0 128 11t130 32l45 -252q-150 -58 -340 -58q-326 0 -511 176.5t-185 497.5zM439 -406 l61 89q43 -29 90 -47.5t86 -18.5q33 0 53.5 15.5t20.5 48.5q0 41 -50 52t-104 9l-43 29l95 274l147 -10l-66 -150q96 -14 157 -64t61 -130q0 -84 -74 -136.5t-170 -52.5q-74 0 -145.5 26t-118.5 66z" />
<glyph unicode="&#xc8;" horiz-adv-x="1085" d="M143 0v1364h830v-258h-537v-272h445v-250h-445v-326h537v-258h-830zM420 1652q0 74 47.5 135.5t122 106.5t158.5 68l37 -80q-80 -63 -125 -135l53 -109q0 -53 -40 -97t-103 -44q-61 0 -105.5 43t-44.5 112z" />
<glyph unicode="&#xc9;" horiz-adv-x="1085" d="M143 0v1364h830v-258h-537v-272h445v-250h-445v-326h537v-258h-830zM499 1577q80 63 125 135l-53 108q0 53 40 97.5t103 44.5q61 0 105.5 -43t44.5 -113q0 -74 -47 -135.5t-122 -106t-159 -67.5z" />
<glyph unicode="&#xca;" horiz-adv-x="1085" d="M143 0v1364h830v-258h-537v-272h445v-250h-445v-326h537v-258h-830zM219 1638l344 270l344 -270l-90 -141l-254 137l-254 -137z" />
<glyph unicode="&#xcb;" horiz-adv-x="1085" d="M143 0v1364h830v-258h-537v-272h445v-250h-445v-326h537v-258h-830zM164 1671q0 68 50 115t116 47t113 -47t47 -115t-50 -115t-116 -47t-113 47t-47 115zM637 1671q0 68 51.5 115t114.5 47q66 0 113 -47t47 -115t-47 -115t-119 -47q-63 0 -111.5 47t-48.5 115z" />
<glyph unicode="&#xcc;" horiz-adv-x="616" d="M160 0v1364h297v-1364h-297zM166 1652q0 74 47.5 135.5t122 106.5t158.5 68l37 -80q-80 -63 -125 -135l53 -109q0 -53 -40 -97t-103 -44q-61 0 -105.5 43t-44.5 112z" />
<glyph unicode="&#xcd;" horiz-adv-x="616" d="M160 0v1364h297v-1364h-297zM246 1577q80 63 125 135l-53 108q0 53 40 97.5t103 44.5q61 0 105.5 -43t44.5 -113q0 -74 -47 -135.5t-122 -106t-159 -67.5z" />
<glyph unicode="&#xce;" horiz-adv-x="616" d="M-35 1638l344 270l344 -270l-90 -141l-254 137l-254 -137zM160 0v1364h297v-1364h-297z" />
<glyph unicode="&#xcf;" horiz-adv-x="616" d="M-90 1671q0 68 50 115t116 47t113 -47t47 -115t-50 -115t-116 -47t-113 47t-47 115zM160 0v1364h297v-1364h-297zM383 1671q0 68 51.5 115t114.5 47q66 0 113 -47t47 -115t-47 -115t-119 -47q-63 0 -111.5 47t-48.5 115z" />
<glyph unicode="&#xd0;" horiz-adv-x="1402" d="M-47 578l20 174h168v612q66 2 131.5 2h128.5h131.5t129.5 -2q203 -2 350 -81t228 -223.5t81 -340.5q0 -215 -93 -376t-261 -250t-394 -93q-53 -2 -107.5 -2h-107.5h-109t-108 2v578h-188zM438 258h133q207 0 326 121t119 332q0 190 -101.5 292.5t-291.5 102.5h-185v-354 h269l-21 -174h-248v-320z" />
<glyph unicode="&#xd1;" horiz-adv-x="1472" d="M143 0v1364h349l565 -956v956h272v-1364h-344l-569 963v-963h-273zM335 1587q35 133 102.5 192.5t151.5 59.5q74 0 131.5 -33t106.5 -64.5t94 -31.5q33 0 60.5 27.5t54.5 97.5l110 -84q-33 -131 -101 -191.5t-152 -60.5q-74 0 -131.5 31.5t-106.5 64.5t-94 33 q-33 0 -60.5 -27.5t-54.5 -97.5z" />
<glyph unicode="&#xd2;" horiz-adv-x="1517" d="M82 676q0 213 85 370.5t237.5 245.5t355.5 88t355.5 -87t236.5 -243.5t84 -365.5q0 -213 -84 -372.5t-236.5 -249t-355.5 -89.5t-355.5 88.5t-237.5 247t-85 367.5zM389 676q0 -133 46 -232.5t130 -155t195 -55.5q170 0 270 121t100 322q0 133 -46 233.5t-130 155.5 t-194 53q-111 2 -194 -53t-130 -155.5t-47 -233.5zM616 1652q0 74 47.5 135.5t122 106.5t158.5 68l37 -80q-80 -63 -125 -135l53 -109q0 -53 -40 -97t-103 -44q-61 0 -105.5 43t-44.5 112z" />
<glyph unicode="&#xd3;" horiz-adv-x="1517" d="M82 676q0 213 85 370.5t237.5 245.5t355.5 88t355.5 -87t236.5 -243.5t84 -365.5q0 -213 -84 -372.5t-236.5 -249t-355.5 -89.5t-355.5 88.5t-237.5 247t-85 367.5zM389 676q0 -133 46 -232.5t130 -155t195 -55.5q170 0 270 121t100 322q0 133 -46 233.5t-130 155.5 t-194 53q-111 2 -194 -53t-130 -155.5t-47 -233.5zM696 1577q80 63 125 135l-53 108q0 53 40 97.5t103 44.5q61 0 105.5 -43t44.5 -113q0 -74 -47 -135.5t-122 -106t-159 -67.5z" />
<glyph unicode="&#xd4;" horiz-adv-x="1517" d="M82 676q0 213 85 370.5t237.5 245.5t355.5 88t355.5 -87t236.5 -243.5t84 -365.5q0 -213 -84 -372.5t-236.5 -249t-355.5 -89.5t-355.5 88.5t-237.5 247t-85 367.5zM389 676q0 -133 46 -232.5t130 -155t195 -55.5q170 0 270 121t100 322q0 133 -46 233.5t-130 155.5 t-194 53q-111 2 -194 -53t-130 -155.5t-47 -233.5zM415 1638l344 270l344 -270l-90 -141l-254 137l-254 -137z" />
<glyph unicode="&#xd5;" horiz-adv-x="1517" d="M82 676q0 213 85 370.5t237.5 245.5t355.5 88t355.5 -87t236.5 -243.5t84 -365.5q0 -213 -84 -372.5t-236.5 -249t-355.5 -89.5t-355.5 88.5t-237.5 247t-85 367.5zM358 1587q35 133 102.5 192.5t151.5 59.5q74 0 131.5 -33t106.5 -64.5t94 -31.5q33 0 60.5 27.5 t54.5 97.5l110 -84q-33 -131 -101 -191.5t-152 -60.5q-74 0 -131.5 31.5t-106.5 64.5t-94 33q-33 0 -60.5 -27.5t-54.5 -97.5zM389 676q0 -133 46 -232.5t130 -155t195 -55.5q170 0 270 121t100 322q0 133 -46 233.5t-130 155.5t-194 53q-111 2 -194 -53t-130 -155.5 t-47 -233.5z" />
<glyph unicode="&#xd6;" horiz-adv-x="1517" d="M82 676q0 213 85 370.5t237.5 245.5t355.5 88t355.5 -87t236.5 -243.5t84 -365.5q0 -213 -84 -372.5t-236.5 -249t-355.5 -89.5t-355.5 88.5t-237.5 247t-85 367.5zM360 1671q0 68 50 115t116 47t113 -47t47 -115t-50 -115t-116 -47t-113 47t-47 115zM389 676 q0 -133 46 -232.5t130 -155t195 -55.5q170 0 270 121t100 322q0 133 -46 233.5t-130 155.5t-194 53q-111 2 -194 -53t-130 -155.5t-47 -233.5zM833 1671q0 68 51.5 115t114.5 47q66 0 113 -47t47 -115t-47 -115t-119 -47q-63 0 -111.5 47t-48.5 115z" />
<glyph unicode="&#xd7;" d="M256 211l301 301l-289 287l94 123l304 -301l286 286l123 -94l-301 -301l283 -285l-94 -123l-297 299l-287 -286z" />
<glyph unicode="&#xd8;" horiz-adv-x="1517" d="M82 676q0 213 85 370.5t237.5 245.5t355.5 88q125 0 232.5 -34.5t191.5 -98.5l192 187l60 -256l-103 -99q49 -82 76 -181t27 -214q0 -213 -84 -372.5t-236.5 -249t-355.5 -89.5q-127 0 -234.5 36t-193.5 102l-189 -185l-59 256l100 97q-49 82 -75.5 182t-26.5 215z M389 676q0 -94 25 -174l563 545q-92 74 -217 71q-111 2 -194 -53t-130 -155.5t-47 -233.5zM539 309q92 -76 221 -76q170 0 270 121t100 322q0 98 -26 180z" />
<glyph unicode="&#xd9;" horiz-adv-x="1425" d="M143 547v817h299v-795q0 -152 73 -240.5t198 -88.5t198.5 90t73.5 239v795h297v-817q0 -172 -70.5 -301t-198.5 -201t-300 -72q-170 0 -299 72t-200 201t-71 301zM569 1652q0 74 47.5 135.5t122 106.5t158.5 68l37 -80q-80 -63 -125 -135l53 -109q0 -53 -40 -97t-103 -44 q-61 0 -105.5 43t-44.5 112z" />
<glyph unicode="&#xda;" horiz-adv-x="1425" d="M143 547v817h299v-795q0 -152 73 -240.5t198 -88.5t198.5 90t73.5 239v795h297v-817q0 -172 -70.5 -301t-198.5 -201t-300 -72q-170 0 -299 72t-200 201t-71 301zM649 1577q80 63 125 135l-53 108q0 53 40 97.5t103 44.5q61 0 105.5 -43t44.5 -113q0 -74 -47 -135.5 t-122 -106t-159 -67.5z" />
<glyph unicode="&#xdb;" horiz-adv-x="1425" d="M143 547v817h299v-795q0 -152 73 -240.5t198 -88.5t198.5 90t73.5 239v795h297v-817q0 -172 -70.5 -301t-198.5 -201t-300 -72q-170 0 -299 72t-200 201t-71 301zM368 1638l344 270l344 -270l-90 -141l-254 137l-254 -137z" />
<glyph unicode="&#xdc;" horiz-adv-x="1425" d="M143 547v817h299v-795q0 -152 73 -240.5t198 -88.5t198.5 90t73.5 239v795h297v-817q0 -172 -70.5 -301t-198.5 -201t-300 -72q-170 0 -299 72t-200 201t-71 301zM313 1671q0 68 50 115t116 47t113 -47t47 -115t-50 -115t-116 -47t-113 47t-47 115zM786 1671 q0 68 51.5 115t114.5 47q66 0 113 -47t47 -115t-47 -115t-119 -47q-63 0 -111.5 47t-48.5 115z" />
<glyph unicode="&#xdd;" horiz-adv-x="1243" d="M10 1364h334l277 -539l274 539h328l-459 -797v-567h-297v567zM553 1577q80 63 125 135l-53 108q0 53 40 97.5t103 44.5q61 0 105.5 -43t44.5 -113q0 -74 -47 -135.5t-122 -106t-159 -67.5z" />
<glyph unicode="&#xde;" horiz-adv-x="1140" d="M143 0v1364h285v-254h158q219 0 341 -108.5t122 -303.5q0 -139 -62.5 -242.5t-175.5 -159.5t-262 -63l-121 -4v-229h-285zM428 475h90q113 0 178.5 57.5t65.5 155.5q0 182 -215 182h-119v-395z" />
<glyph unicode="&#xdf;" horiz-adv-x="1187" d="M133 -446v1470q0 154 58.5 267.5t166 175t254.5 61.5q117 0 210 -40t147.5 -116t54.5 -182q0 -88 -33 -151.5t-77 -108.5t-76.5 -79t-32.5 -63t33.5 -57.5t83 -63t98.5 -82.5t83 -115t34 -159q0 -154 -99.5 -246t-257.5 -92q-59 0 -123.5 14.5t-132.5 41.5l101 223 q66 -35 125 -35q47 0 71.5 22.5t24.5 61.5q0 43 -29 77t-70.5 65.5t-85 69.5t-72 88t-28.5 122q0 68 25.5 128t60.5 114.5t60.5 103.5t25.5 98t-31.5 83t-97.5 34q-82 0 -132 -58.5t-50 -156.5v-1515h-289z" />
<glyph unicode="&#xe0;" horiz-adv-x="1140" d="M82 487q0 291 147.5 443.5t423.5 152.5q156 0 365 -49v-1034h-275l7 168h-9q-106 -199 -303 -199q-162 0 -259 138.5t-97 379.5zM360 500q0 -129 37 -204t103 -75q68 0 129 72t110 176v344q-33 10 -67.5 14t-63.5 4q-248 0 -248 -331zM481 1343q0 74 47.5 135.5 t122 106.5t158.5 68l37 -80q-80 -63 -125 -135l53 -109q0 -53 -40 -97t-103 -44q-61 0 -105.5 43t-44.5 112z" />
<glyph unicode="&#xe1;" horiz-adv-x="1140" d="M82 487q0 291 147.5 443.5t423.5 152.5q156 0 365 -49v-1034h-275l7 168h-9q-106 -199 -303 -199q-162 0 -259 138.5t-97 379.5zM360 500q0 -129 37 -204t103 -75q68 0 129 72t110 176v344q-33 10 -67.5 14t-63.5 4q-248 0 -248 -331zM561 1268q80 63 125 135l-53 108 q0 53 40 97.5t103 44.5q61 0 105.5 -43t44.5 -113q0 -74 -47 -135.5t-122 -106t-159 -67.5z" />
<glyph unicode="&#xe2;" horiz-adv-x="1140" d="M82 487q0 291 147.5 443.5t423.5 152.5q156 0 365 -49v-1034h-275l7 168h-9q-106 -199 -303 -199q-162 0 -259 138.5t-97 379.5zM280 1329l344 270l344 -270l-90 -141l-254 137l-254 -137zM360 500q0 -129 37 -204t103 -75q68 0 129 72t110 176v344q-33 10 -67.5 14 t-63.5 4q-248 0 -248 -331z" />
<glyph unicode="&#xe3;" horiz-adv-x="1140" d="M82 487q0 291 147.5 443.5t423.5 152.5q156 0 365 -49v-1034h-275l7 168h-9q-106 -199 -303 -199q-162 0 -259 138.5t-97 379.5zM223 1278q35 133 102.5 192.5t151.5 59.5q74 0 131.5 -33t106.5 -64.5t94 -31.5q33 0 60.5 27.5t54.5 97.5l110 -84q-33 -131 -101 -191.5 t-152 -60.5q-74 0 -131.5 31.5t-106.5 64.5t-94 33q-33 0 -60.5 -27.5t-54.5 -97.5zM360 500q0 -129 37 -204t103 -75q68 0 129 72t110 176v344q-33 10 -67.5 14t-63.5 4q-248 0 -248 -331z" />
<glyph unicode="&#xe4;" horiz-adv-x="1140" d="M82 487q0 291 147.5 443.5t423.5 152.5q156 0 365 -49v-1034h-275l7 168h-9q-106 -199 -303 -199q-162 0 -259 138.5t-97 379.5zM225 1362q0 68 50 115t116 47t113 -47t47 -115t-50 -115t-116 -47t-113 47t-47 115zM360 500q0 -129 37 -204t103 -75q68 0 129 72t110 176 v344q-33 10 -67.5 14t-63.5 4q-248 0 -248 -331zM698 1362q0 68 51.5 115t114.5 47q66 0 113 -47t47 -115t-47 -115t-119 -47q-63 0 -111.5 47t-48.5 115z" />
<glyph unicode="&#xe5;" horiz-adv-x="1140" d="M82 487q0 291 147.5 443.5t423.5 152.5q156 0 365 -49v-1034h-275l7 168h-9q-106 -199 -303 -199q-162 0 -259 138.5t-97 379.5zM360 500q0 -129 37 -204t103 -75q68 0 129 72t110 176v344q-33 10 -67.5 14t-63.5 4q-248 0 -248 -331zM360 1432q0 74 36 131t95.5 91 t132.5 34q74 0 133.5 -34t95.5 -91.5t36 -130.5q0 -72 -36 -130.5t-95.5 -92t-133.5 -33.5t-133 33.5t-95 92t-36 130.5zM522 1432q0 -43 28.5 -77t73.5 -34q47 0 75 34t28 77t-28 76.5t-75 33.5q-45 0 -73.5 -33.5t-28.5 -76.5z" />
<glyph unicode="&#xe6;" horiz-adv-x="1755" d="M82 483q0 291 144.5 445.5t414.5 154.5q72 0 157 -10t183 -31q98 41 217 41q229 0 352 -147.5t123 -425.5v-35.5t-2 -34.5h-696q41 -221 293 -221q78 0 158.5 19.5t142.5 52.5l47 -232q-170 -90 -383 -90q-309 0 -453 209h-8q-45 -100 -134.5 -154.5t-193.5 -54.5 q-170 0 -266 137.5t-96 376.5zM360 504q0 -131 42 -207t118 -76q100 0 185 127q-20 76 -21 178q0 82 15.5 154t41.5 133q-31 10 -67.5 14t-65.5 4q-123 0 -185.5 -83.5t-62.5 -243.5zM973 657h424q-6 88 -61.5 140.5t-147.5 52.5q-88 0 -144.5 -51.5t-70.5 -141.5z" />
<glyph unicode="&#xe7;" horiz-adv-x="983" d="M74 502q0 174 67.5 305t190.5 203.5t284 72.5q78 0 160 -17t127 -40l-55 -244q-47 23 -104.5 36t-104.5 13q-125 0 -203 -86t-78 -227q0 -143 80 -221t224 -78q96 0 206 37l43 -233q-70 -27 -140 -40.5t-146 -13.5q-262 0 -406.5 139.5t-144.5 393.5zM351 -406l61 89 q43 -29 90 -47.5t86 -18.5q33 0 53.5 15.5t20.5 48.5q0 41 -50 52t-104 9l-43 29l95 274l147 -10l-66 -150q96 -14 157 -64t61 -130q0 -84 -74 -136.5t-170 -52.5q-74 0 -145.5 26t-118.5 66z" />
<glyph unicode="&#xe8;" horiz-adv-x="1153" d="M82 526q0 172 63.5 297t179 192.5t271.5 67.5q229 0 352 -147.5t123 -425.5v-35.5t-2 -34.5h-696q41 -221 293 -221q78 0 158.5 19.5t142.5 52.5l47 -232q-170 -90 -383 -90q-254 0 -401.5 147.5t-147.5 409.5zM371 657h424q-6 88 -61.5 140.5t-147.5 52.5 q-88 0 -144.5 -51.5t-70.5 -141.5zM452 1343q0 74 47.5 135.5t122 106.5t158.5 68l37 -80q-80 -63 -125 -135l53 -109q0 -53 -40 -97t-103 -44q-61 0 -105.5 43t-44.5 112z" />
<glyph unicode="&#xe9;" horiz-adv-x="1153" d="M82 526q0 172 63.5 297t179 192.5t271.5 67.5q229 0 352 -147.5t123 -425.5v-35.5t-2 -34.5h-696q41 -221 293 -221q78 0 158.5 19.5t142.5 52.5l47 -232q-170 -90 -383 -90q-254 0 -401.5 147.5t-147.5 409.5zM371 657h424q-6 88 -61.5 140.5t-147.5 52.5 q-88 0 -144.5 -51.5t-70.5 -141.5zM532 1268q80 63 125 135l-53 108q0 53 40 97.5t103 44.5q61 0 105.5 -43t44.5 -113q0 -74 -47 -135.5t-122 -106t-159 -67.5z" />
<glyph unicode="&#xea;" horiz-adv-x="1153" d="M82 526q0 172 63.5 297t179 192.5t271.5 67.5q229 0 352 -147.5t123 -425.5v-35.5t-2 -34.5h-696q41 -221 293 -221q78 0 158.5 19.5t142.5 52.5l47 -232q-170 -90 -383 -90q-254 0 -401.5 147.5t-147.5 409.5zM252 1329l344 270l344 -270l-90 -141l-254 137l-254 -137z M371 657h424q-6 88 -61.5 140.5t-147.5 52.5q-88 0 -144.5 -51.5t-70.5 -141.5z" />
<glyph unicode="&#xeb;" horiz-adv-x="1153" d="M82 526q0 172 63.5 297t179 192.5t271.5 67.5q229 0 352 -147.5t123 -425.5v-35.5t-2 -34.5h-696q41 -221 293 -221q78 0 158.5 19.5t142.5 52.5l47 -232q-170 -90 -383 -90q-254 0 -401.5 147.5t-147.5 409.5zM197 1362q0 68 50 115t116 47t113 -47t47 -115t-50 -115 t-116 -47t-113 47t-47 115zM371 657h424q-6 88 -61.5 140.5t-147.5 52.5q-88 0 -144.5 -51.5t-70.5 -141.5zM670 1362q0 68 51.5 115t114.5 47q66 0 113 -47t47 -115t-47 -115t-119 -47q-63 0 -111.5 47t-48.5 115z" />
<glyph unicode="&#xec;" horiz-adv-x="815" d="M96 0v248h197v559h-197v248h486v-807h176v-248h-662zM264 1343q0 74 47.5 135.5t122 106.5t158.5 68l37 -80q-80 -63 -125 -135l53 -109q0 -53 -40 -97t-103 -44q-61 0 -105.5 43t-44.5 112z" />
<glyph unicode="&#xed;" horiz-adv-x="815" d="M96 0v248h197v559h-197v248h486v-807h176v-248h-662zM344 1268q80 63 125 135l-53 108q0 53 40 97.5t103 44.5q61 0 105.5 -43t44.5 -113q0 -74 -47 -135.5t-122 -106t-159 -67.5z" />
<glyph unicode="&#xee;" horiz-adv-x="815" d="M63 1329l344 270l344 -270l-90 -141l-254 137l-254 -137zM96 0v248h197v559h-197v248h486v-807h176v-248h-662z" />
<glyph unicode="&#xef;" horiz-adv-x="815" d="M8 1362q0 68 50 115t116 47t113 -47t47 -115t-50 -115t-116 -47t-113 47t-47 115zM96 0v248h197v559h-197v248h486v-807h176v-248h-662zM481 1362q0 68 51.5 115t114.5 47q66 0 113 -47t47 -115t-47 -115t-119 -47q-63 0 -111.5 47t-48.5 115z" />
<glyph unicode="&#xf0;" horiz-adv-x="1200" d="M92 526q0 168 63.5 293t177 194.5t263.5 69.5q98 0 176 -34q-33 43 -71.5 84t-84.5 84l-241 -84l-27 147l141 49q-37 31 -76.5 62.5t-82.5 66.5l301 80q70 -55 129 -115l239 82l27 -147l-160 -55q115 -145 178.5 -317.5t63.5 -375.5q0 -184 -55.5 -329.5t-168 -228.5 t-282.5 -83q-154 0 -268.5 70t-178 194.5t-63.5 292.5zM373 528q0 -141 61.5 -226t163.5 -85t163.5 85t61.5 226q0 139 -61.5 223.5t-163.5 84.5t-163.5 -84t-61.5 -224z" />
<glyph unicode="&#xf1;" horiz-adv-x="1253" d="M133 0v1055h283v-183q66 111 152.5 161t199.5 50q170 0 266 -101t96 -282v-700h-288v655q0 84 -41 129t-111 45q-84 0 -156.5 -62t-111.5 -155v-612h-289zM225 1278q35 133 102.5 192.5t151.5 59.5q74 0 131.5 -33t106.5 -64.5t94 -31.5q33 0 60.5 27.5t54.5 97.5 l110 -84q-33 -131 -101 -191.5t-152 -60.5q-74 0 -131.5 31.5t-106.5 64.5t-94 33q-33 0 -60.5 -27.5t-54.5 -97.5z" />
<glyph unicode="&#xf2;" horiz-adv-x="1236" d="M82 526q0 168 67.5 293t188.5 194.5t280 69.5q162 0 282 -68.5t187.5 -192.5t67.5 -290q0 -168 -66.5 -294.5t-187 -197.5t-280.5 -71q-162 0 -283 70t-188.5 194.5t-67.5 292.5zM375 528q0 -139 66 -224t177 -85t177.5 85t66.5 224t-66.5 222.5t-177.5 83.5t-177 -83 t-66 -223zM475 1343q0 74 47.5 135.5t122 106.5t158.5 68l37 -80q-80 -63 -125 -135l53 -109q0 -53 -40 -97t-103 -44q-61 0 -105.5 43t-44.5 112z" />
<glyph unicode="&#xf3;" horiz-adv-x="1236" d="M82 526q0 168 67.5 293t188.5 194.5t280 69.5q162 0 282 -68.5t187.5 -192.5t67.5 -290q0 -168 -66.5 -294.5t-187 -197.5t-280.5 -71q-162 0 -283 70t-188.5 194.5t-67.5 292.5zM375 528q0 -139 66 -224t177 -85t177.5 85t66.5 224t-66.5 222.5t-177.5 83.5t-177 -83 t-66 -223zM555 1268q80 63 125 135l-53 108q0 53 40 97.5t103 44.5q61 0 105.5 -43t44.5 -113q0 -74 -47 -135.5t-122 -106t-159 -67.5z" />
<glyph unicode="&#xf4;" horiz-adv-x="1236" d="M82 526q0 168 67.5 293t188.5 194.5t280 69.5q162 0 282 -68.5t187.5 -192.5t67.5 -290q0 -168 -66.5 -294.5t-187 -197.5t-280.5 -71q-162 0 -283 70t-188.5 194.5t-67.5 292.5zM274 1329l344 270l344 -270l-90 -141l-254 137l-254 -137zM375 528q0 -139 66 -224 t177 -85t177.5 85t66.5 224t-66.5 222.5t-177.5 83.5t-177 -83t-66 -223z" />
<glyph unicode="&#xf5;" horiz-adv-x="1236" d="M82 526q0 168 67.5 293t188.5 194.5t280 69.5q162 0 282 -68.5t187.5 -192.5t67.5 -290q0 -168 -66.5 -294.5t-187 -197.5t-280.5 -71q-162 0 -283 70t-188.5 194.5t-67.5 292.5zM217 1278q35 133 102.5 192.5t151.5 59.5q74 0 131.5 -33t106.5 -64.5t94 -31.5 q33 0 60.5 27.5t54.5 97.5l110 -84q-33 -131 -101 -191.5t-152 -60.5q-74 0 -131.5 31.5t-106.5 64.5t-94 33q-33 0 -60.5 -27.5t-54.5 -97.5zM375 528q0 -139 66 -224t177 -85t177.5 85t66.5 224t-66.5 222.5t-177.5 83.5t-177 -83t-66 -223z" />
<glyph unicode="&#xf6;" horiz-adv-x="1236" d="M82 526q0 168 67.5 293t188.5 194.5t280 69.5q162 0 282 -68.5t187.5 -192.5t67.5 -290q0 -168 -66.5 -294.5t-187 -197.5t-280.5 -71q-162 0 -283 70t-188.5 194.5t-67.5 292.5zM219 1362q0 68 50 115t116 47t113 -47t47 -115t-50 -115t-116 -47t-113 47t-47 115z M375 528q0 -139 66 -224t177 -85t177.5 85t66.5 224t-66.5 222.5t-177.5 83.5t-177 -83t-66 -223zM692 1362q0 68 51.5 115t114.5 47q66 0 113 -47t47 -115t-47 -115t-119 -47q-63 0 -111.5 47t-48.5 115z" />
<glyph unicode="&#xf7;" d="M164 436l20 154h983l-20 -154h-983zM487 104q0 72 52.5 124.5t122.5 52.5q72 0 123 -52.5t51 -124.5q0 -70 -51 -122t-123 -52q-70 0 -122.5 52.5t-52.5 121.5zM487 913q0 72 52.5 123t122.5 51q72 0 123 -51t51 -123t-51 -124t-123 -52q-70 0 -122.5 52.5t-52.5 123.5z " />
<glyph unicode="&#xf8;" horiz-adv-x="1243" d="M82 526q0 168 67.5 293t188.5 194.5t280 69.5q188 0 324 -96l152 154l49 -221l-70 -72q82 -133 82 -316q0 -168 -66.5 -294.5t-187.5 -197.5t-280 -71q-188 0 -324 94l-145 -147l-50 221l66 66q-86 137 -86 323zM375 528q0 -55 12 -104l363 369q-55 41 -132 41 q-111 0 -177 -83.5t-66 -222.5zM489 258q55 -39 129 -39q111 0 177.5 85t66.5 224q0 51 -10 97z" />
<glyph unicode="&#xf9;" horiz-adv-x="1226" d="M123 354v701h289v-654q0 -84 41 -130t110 -46q72 0 135.5 45t106.5 121v664h289v-1055h-289v139q-53 -72 -129 -120t-193 -48q-168 0 -264 103.5t-96 279.5zM471 1343q0 74 47.5 135.5t122 106.5t158.5 68l37 -80q-80 -63 -125 -135l53 -109q0 -53 -40 -97t-103 -44 q-61 0 -105.5 43t-44.5 112z" />
<glyph unicode="&#xfa;" horiz-adv-x="1226" d="M123 354v701h289v-654q0 -84 41 -130t110 -46q72 0 135.5 45t106.5 121v664h289v-1055h-289v139q-53 -72 -129 -120t-193 -48q-168 0 -264 103.5t-96 279.5zM551 1268q80 63 125 135l-53 108q0 53 40 97.5t103 44.5q61 0 105.5 -43t44.5 -113q0 -74 -47 -135.5t-122 -106 t-159 -67.5z" />
<glyph unicode="&#xfb;" horiz-adv-x="1226" d="M123 354v701h289v-654q0 -84 41 -130t110 -46q72 0 135.5 45t106.5 121v664h289v-1055h-289v139q-53 -72 -129 -120t-193 -48q-168 0 -264 103.5t-96 279.5zM270 1329l344 270l344 -270l-90 -141l-254 137l-254 -137z" />
<glyph unicode="&#xfc;" horiz-adv-x="1226" d="M123 354v701h289v-654q0 -84 41 -130t110 -46q72 0 135.5 45t106.5 121v664h289v-1055h-289v139q-53 -72 -129 -120t-193 -48q-168 0 -264 103.5t-96 279.5zM215 1362q0 68 50 115t116 47t113 -47t47 -115t-50 -115t-116 -47t-113 47t-47 115zM688 1362q0 68 51.5 115 t114.5 47q66 0 113 -47t47 -115t-47 -115t-119 -47q-63 0 -111.5 47t-48.5 115z" />
<glyph unicode="&#xfd;" horiz-adv-x="1110" d="M12 1051l299 24l252 -756l234 736h284q-45 -137 -98 -291t-109.5 -308.5t-109.5 -292.5t-100.5 -247t-81.5 -172q-55 -98 -125 -150.5t-174 -52.5q-51 0 -99.5 12.5t-97.5 32.5l43 238q78 -39 131 -39q68 0 99.5 47t64.5 137zM491 1268q80 63 125 135l-53 108 q0 53 40 97.5t103 44.5q61 0 105.5 -43t44.5 -113q0 -74 -47 -135.5t-122 -106t-159 -67.5z" />
<glyph unicode="&#xfe;" horiz-adv-x="1183" d="M133 -446v1941h279v-577h4q109 168 305 167q176 0 278.5 -136t102.5 -380q0 -291 -150.5 -444.5t-429.5 -153.5q-27 0 -52.5 1t-51.5 3v-421h-285zM418 242q72 -19 133 -19q129 0 195.5 84t66.5 246q0 133 -42 207t-116 74q-63 0 -125.5 -56.5t-111.5 -161.5v-374z" />
<glyph unicode="&#xff;" horiz-adv-x="1110" d="M12 1051l299 24l252 -756l234 736h284q-45 -137 -98 -291t-109.5 -308.5t-109.5 -292.5t-100.5 -247t-81.5 -172q-55 -98 -125 -150.5t-174 -52.5q-51 0 -99.5 12.5t-97.5 32.5l43 238q78 -39 131 -39q68 0 99.5 47t64.5 137zM156 1362q0 68 50 115t116 47t113 -47 t47 -115t-50 -115t-116 -47t-113 47t-47 115zM629 1362q0 68 51.5 115t114.5 47q66 0 113 -47t47 -115t-47 -115t-119 -47q-63 0 -111.5 47t-48.5 115z" />
<glyph unicode="&#x152;" horiz-adv-x="1863" d="M82 676q0 213 85 370.5t237.5 245.5t355.5 88q43 0 83 -4t79 -12h829v-258h-537v-272h445v-250h-445v-326h537v-258h-788q-45 -14 -97.5 -20.5t-105.5 -6.5q-203 0 -355.5 88.5t-237.5 247t-85 367.5zM389 676q0 -133 46 -232.5t130 -155t195 -55.5q88 0 162 35v815 q-76 35 -166 35q-109 0 -192 -55t-129 -154.5t-46 -232.5z" />
<glyph unicode="&#x153;" horiz-adv-x="1849" d="M82 526q0 168 67.5 293t188.5 194.5t280 69.5q102 0 188.5 -27.5t154.5 -80.5q66 53 148.5 80.5t182.5 27.5q229 0 352 -147.5t123 -425.5v-35.5t-2 -34.5h-696q41 -221 293 -221q78 0 159 19.5t142 52.5l47 -232q-170 -90 -383 -90q-113 0 -205 30t-161 85 q-137 -115 -340 -115q-162 0 -283 70t-188.5 194.5t-67.5 292.5zM375 528q0 -139 66 -224t177 -85q121 0 189 100q-29 96 -29 207t29 209q-33 47 -81 73t-108 26q-111 0 -177 -83t-66 -223zM1067 657h424q-6 88 -61.5 140.5t-147.5 52.5q-88 0 -144.5 -51.5t-70.5 -141.5z " />
<glyph unicode="&#x178;" horiz-adv-x="1243" d="M10 1364h334l277 -539l274 539h328l-459 -797v-567h-297v567zM217 1671q0 68 50 115t116 47t113 -47t47 -115t-50 -115t-116 -47t-113 47t-47 115zM690 1671q0 68 51.5 115t114.5 47q66 0 113 -47t47 -115t-47 -115t-119 -47q-63 0 -111.5 47t-48.5 115z" />
<glyph unicode="&#x2c6;" horiz-adv-x="1228" d="M270 1329l344 270l344 -270l-90 -141l-254 137l-254 -137z" />
<glyph unicode="&#x2dc;" horiz-adv-x="1228" d="M208 1278q35 133 102.5 192.5t151.5 59.5q74 0 131.5 -33t106.5 -64.5t94 -31.5q33 0 60.5 27.5t54.5 97.5l110 -84q-33 -131 -101 -191.5t-152 -60.5q-74 0 -131.5 31.5t-106.5 64.5t-94 33q-33 0 -60.5 -27.5t-54.5 -97.5z" />
<glyph unicode="&#x2000;" horiz-adv-x="998" />
<glyph unicode="&#x2001;" horiz-adv-x="1997" />
<glyph unicode="&#x2002;" horiz-adv-x="998" />
<glyph unicode="&#x2003;" horiz-adv-x="1997" />
<glyph unicode="&#x2004;" horiz-adv-x="665" />
<glyph unicode="&#x2005;" horiz-adv-x="499" />
<glyph unicode="&#x2006;" horiz-adv-x="332" />
<glyph unicode="&#x2007;" horiz-adv-x="332" />
<glyph unicode="&#x2008;" horiz-adv-x="249" />
<glyph unicode="&#x2009;" horiz-adv-x="399" />
<glyph unicode="&#x200a;" horiz-adv-x="110" />
<glyph unicode="&#x2010;" horiz-adv-x="1107" d="M133 498l21 235h819l-21 -235h-819z" />
<glyph unicode="&#x2011;" horiz-adv-x="1107" d="M133 498l21 235h819l-21 -235h-819z" />
<glyph unicode="&#x2012;" horiz-adv-x="1107" d="M133 498l21 235h819l-21 -235h-819z" />
<glyph unicode="&#x2013;" horiz-adv-x="1425" d="M88 498l21 235h1228l-20 -235h-1229z" />
<glyph unicode="&#x2014;" horiz-adv-x="1970" d="M156 498l20 235h1639l-21 -235h-1638z" />
<glyph unicode="&#x2018;" horiz-adv-x="647" d="M113 874q0 66 34.5 153t116.5 185.5t221 196.5l50 -178q-39 -51 -73 -103.5t-52 -99.5l118 -178q0 -45 -25.5 -91t-70.5 -76t-108 -30q-86 0 -148.5 61.5t-62.5 159.5z" />
<glyph unicode="&#x2019;" horiz-adv-x="626" d="M92 831q41 51 74 103.5t51 99.5l-119 178q0 47 26 92.5t72 75t107 29.5q86 0 148.5 -61.5t62.5 -159.5q0 -66 -35 -153t-117 -185.5t-221 -196.5z" />
<glyph unicode="&#x201a;" horiz-adv-x="626" d="M92 -154q41 51 74 103.5t51 99.5l-119 178q0 47 26 92.5t72 75t107 29.5q86 0 148.5 -61.5t62.5 -159.5q0 -66 -35 -153t-117 -185.5t-221 -196.5z" />
<glyph unicode="&#x201c;" horiz-adv-x="1183" d="M113 874q0 66 34.5 153t116.5 185.5t221 196.5l50 -178q-39 -51 -73 -103.5t-52 -99.5l118 -178q0 -45 -25.5 -91t-70.5 -76t-108 -30q-86 0 -148.5 61.5t-62.5 159.5zM649 874q0 66 35 153t117 185.5t221 196.5l49 -178q-39 -51 -72.5 -103.5t-52.5 -99.5l119 -178 q0 -45 -25.5 -91t-71 -76t-108.5 -30q-86 0 -148.5 61.5t-62.5 159.5z" />
<glyph unicode="&#x201d;" horiz-adv-x="1183" d="M113 831q41 51 73.5 103.5t51.5 99.5l-119 178q0 47 25.5 92.5t70.5 75t109 29.5q86 0 148.5 -61.5t62.5 -159.5q0 -66 -35 -153t-117 -185.5t-221 -196.5zM649 831q41 51 74 103.5t51 99.5l-119 178q0 47 26 92.5t72 75t107 29.5q86 0 148.5 -61.5t62.5 -159.5 q0 -66 -35 -153t-117 -185.5t-221 -196.5z" />
<glyph unicode="&#x201e;" horiz-adv-x="1163" d="M113 -154q41 51 73.5 103.5t51.5 99.5l-119 178q0 47 25.5 92.5t70.5 75t109 29.5q86 0 148.5 -61.5t62.5 -159.5q0 -66 -35 -153t-117 -185.5t-221 -196.5zM649 -154q41 51 74 103.5t51 99.5l-119 178q0 47 26 92.5t72 75t107 29.5q86 0 148.5 -61.5t62.5 -159.5 q0 -66 -35 -153t-117 -185.5t-221 -196.5z" />
<glyph unicode="&#x2022;" horiz-adv-x="948" d="M199 571q0 76 37.5 137.5t100 98.5t136.5 37t136.5 -37t99 -99.5t36.5 -136.5t-36.5 -136t-98 -100t-137.5 -38t-138.5 38t-99 100.5t-36.5 135.5z" />
<glyph unicode="&#x2026;" horiz-adv-x="1835" d="M98 162q0 80 57.5 137t135.5 57q80 0 136 -57t56 -137q0 -78 -56 -135.5t-136 -57.5q-78 0 -135.5 57.5t-57.5 135.5zM723 162q0 80 57.5 137t134.5 57q80 0 136.5 -57t56.5 -137q0 -78 -56.5 -135.5t-136.5 -57.5q-78 0 -135 57.5t-57 135.5zM1348 162q0 80 57 137 t135 57q80 0 136.5 -57t56.5 -137q0 -78 -56.5 -135.5t-136.5 -57.5q-78 0 -135 57.5t-57 135.5z" />
<glyph unicode="&#x202f;" horiz-adv-x="399" />
<glyph unicode="&#x2039;" horiz-adv-x="940" d="M164 567l438 535l191 -141l-258 -394l272 -401l-189 -131z" />
<glyph unicode="&#x203a;" horiz-adv-x="940" d="M133 166l273 401l-259 394l191 141l438 -535l-454 -532z" />
<glyph unicode="&#x205f;" horiz-adv-x="499" />
<glyph unicode="&#x20ac;" horiz-adv-x="1378" d="M41 471l20 133h170v43v35.5t2 34.5h-192l20 133h191q37 164 130 283.5t233.5 185t318.5 65.5q84 0 164 -14t151 -43l-55 -262q-63 29 -128 43t-130 14q-143 0 -240.5 -72.5t-138.5 -199.5h592l-27 -133h-587q-2 -10 -2.5 -21.5t-0.5 -21.5q0 -18 1.5 -35.5t3.5 -34.5h563 l-29 -133h-502q47 -115 148.5 -176.5t251.5 -61.5q57 0 123.5 9.5t130.5 29.5l43 -243q-148 -56 -334 -56q-283 0 -460 129t-224 369h-207z" />
<glyph unicode="&#x2122;" horiz-adv-x="1384" d="M113 954v101h407v-101h-145v-432h-117v432h-145zM578 522l47 533h145l135 -383l131 383h146l49 -533h-105l-36 375l-142 -381l-92 -6l-141 389l-33 -377h-104z" />
<glyph unicode="&#x25fc;" horiz-adv-x="1075" d="M0 0v1075h1075v-1075h-1075z" />
</font>
</defs>
</svg>
